<svg width="100px" height="100px" fill="none" stroke="#000000" stroke-width=".00016" version="1.1" viewBox="-.96 -.96 17.92 17.92" xmlns="http://www.w3.org/2000/svg">
	<g stroke="#ccc" stroke-linecap="round" stroke-linejoin="round" stroke-width=".96">
		<path d="m15.101 3.0562-4.6741-2.8165c-0.1386-0.07615-0.31457-0.2397-0.89891-0.2397-0.3196 0-0.61923 0.0799-0.89888 0.2397l-7.7303 4.5543c-0.27965 0.1598-0.49938 0.37952-0.65918 0.65917-0.1598 0.27966-0.2397 0.55931-0.2397 0.83896v5.0337c0 0.3196 0.0799 0.6193 0.2397 0.8989 0.1598 0.2797 0.37953 0.4794 0.65918 0.5993l4.6742 2.7565c0.27965 0.1598 0.57928 0.2397 0.89888 0.2397s0.61923-0.0799 0.89888-0.2397l7.7303-4.4944c0.2797-0.1598 0.4994-0.3795 0.6592-0.6591 0.1598-0.2797 0.2397-0.57931 0.2397-0.89891v-4.9738c0-0.3196-0.0799-0.59925-0.2397-0.83895-0.1598-0.27965-0.3795-0.49938-0.6592-0.65918zm-12.884 2.6966 7.191-4.1948c0.0799-0.03995 0.1598-0.03995 0.2397 0l4.0749 2.397-7.131 4.1348c-0.0799 0.0799-0.1598 0.0799-0.2397 0zm3.4756 8.2097-4.0749-2.397c-0.0799-0.0399-0.11985-0.1198-0.11985-0.2397v-4.3146l4.1948 2.4569zm1.5581-4.4943 0.11985-0.05993 7.1311-4.1348v4.3146c0 0.0799-0.06 0.13982-0.1798 0.17977l-7.0712 4.1947z" clip-rule="evenodd" fill="#000" fill-rule="evenodd"/></g><path d="m15.101 3.0562-4.6741-2.8165c-0.15383-0.086154-0.31457-0.2397-0.89891-0.2397-0.3196 0-0.61923 0.0799-0.89888 0.2397l-7.7303 4.5543c-0.27965 0.1598-0.49938 0.37952-0.65918 0.65917-0.1598 0.27966-0.2397 0.55931-0.2397 0.83896v5.0337c0 0.3196 0.0799 0.6193 0.2397 0.8989 0.1598 0.2797 0.37953 0.4794 0.65918 0.5993l4.6742 2.7565c0.27965 0.1598 0.57928 0.2397 0.89888 0.2397s0.61923-0.0799 0.89888-0.2397l7.7303-4.4944c0.2797-0.1598 0.4994-0.3795 0.6592-0.6591 0.1598-0.2797 0.2397-0.57931 0.2397-0.89891v-4.9738c0-0.3196-0.0799-0.59925-0.2397-0.83895-0.1598-0.27965-0.3795-0.49938-0.6592-0.65918zm-12.884 2.6966 7.191-4.1948c0.0799-0.03995 0.1598-0.03995 0.2397 0l4.0749 2.397-7.131 4.1348c-0.0799 0.0799-0.1598 0.0799-0.2397 0zm3.4756 8.2097-4.0749-2.397c-0.0799-0.0399-0.11985-0.1198-0.11985-0.2397v-4.3146l4.1948 2.4569zm1.5581-4.4943 0.11985-0.05993 7.1311-4.1348v4.3146c0 0.0799-0.06 0.13982-0.1798 0.17977l-7.0712 4.1947z" clip-rule="evenodd" fill="#000" fill-rule="evenodd"/>
</svg>
